/* XPM */
static char * C:\Users\Daniels\Desktop\pixmaps_novo\bitcoin32_xpm[] = {
"32 32 235 2",
"  	c None",
". 	c #C8BFAD",
"+ 	c #D3C4A3",
"@ 	c #DCC9A1",
"# 	c #DFCA9F",
"$ 	c #DFCCA3",
"% 	c #D9C7A1",
"& 	c #D1C3A7",
"* 	c #C4BFB4",
"= 	c #B8B8B8",
"- 	c #BCB5A5",
"; 	c #DDC696",
"> 	c #E1BE70",
", 	c #E1B85E",
"' 	c #E4BF70",
") 	c #E6C67F",
"! 	c #E5C37A",
"~ 	c #E5C277",
"{ 	c #E2BC68",
"] 	c #DEB352",
"^ 	c #D3A949",
"/ 	c #C6AF7C",
"( 	c #BFBCB8",
"_ 	c #A5A5A5",
": 	c #DFC48C",
"< 	c #E9CB8C",
"[ 	c #E8C988",
"} 	c #E7C782",
"| 	c #E1BA65",
"1 	c #E4C173",
"2 	c #E0B962",
"3 	c #DFB559",
"4 	c #DDB14E",
"5 	c #D8A730",
"6 	c #B59C64",
"7 	c #B1B1B1",
"8 	c #C5B38F",
"9 	c #E4C174",
"0 	c #EACC8E",
"a 	c #E6C47D",
"b 	c #E0B75C",
"c 	c #DAAC3D",
"d 	c #E0B65B",
"e 	c #DCB14C",
"f 	c #DCB14B",
"g 	c #DCAF47",
"h 	c #DBAD42",
"i 	c #D9A833",
"j 	c #C19633",
"k 	c #A7A092",
"l 	c #8D8D8D",
"m 	c #CFB682",
"n 	c #E3BD6A",
"o 	c #E8CA89",
"p 	c #DAAC3F",
"q 	c #D8A52F",
"r 	c #D4A127",
"s 	c #B5881F",
"t 	c #DDB14F",
"u 	c #B3881F",
"v 	c #B88B20",
"w 	c #BB8D21",
"x 	c #CC9A24",
"y 	c #CB9924",
"z 	c #C39422",
"A 	c #9D9075",
"B 	c #838383",
"C 	c #CAB17B",
"D 	c #E9CB8B",
"E 	c #DEB354",
"F 	c #C29323",
"G 	c #DAA937",
"H 	c #E3BE6E",
"I 	c #DEB455",
"J 	c #A67D1D",
"K 	c #826214",
"L 	c #CE9C25",
"M 	c #938870",
"N 	c #727272",
"O 	c #E5C379",
"P 	c #E6C47C",
"Q 	c #E4BF71",
"R 	c #DFB557",
"S 	c #D7A328",
"T 	c #D29F26",
"U 	c #BD8F22",
"V 	c #A47D21",
"W 	c #7F7B72",
"X 	c #E3BD6C",
"Y 	c #E7C885",
"Z 	c #CF9D25",
"` 	c #765912",
" .	c #4F3B08",
"..	c #543F09",
"+.	c #533E09",
"@.	c #806013",
"#.	c #C79623",
"$.	c #D19E26",
"%.	c #C99824",
"&.	c #BA8D21",
"*.	c #AB811D",
"=.	c #9F781B",
"-.	c #917636",
";.	c #636363",
">.	c #CBAB65",
",.	c #E6C680",
"'.	c #D9A834",
").	c #916D17",
"!.	c #9D7719",
"~.	c #D7A42C",
"{.	c #B1861F",
"].	c #A9801C",
"^.	c #A27B1B",
"/.	c #9C7619",
"(.	c #8C6916",
"_.	c #827457",
":.	c #565656",
"<.	c #61470C",
"[.	c #AC821D",
"}.	c #D6A227",
"|.	c #A0791A",
"1.	c #987319",
"2.	c #896615",
"3.	c #7D6225",
"4.	c #664D0E",
"5.	c #DCAF48",
"6.	c #C09121",
"7.	c #634A0D",
"8.	c #513C09",
"9.	c #8B6816",
"0.	c #BF9121",
"a.	c #957018",
"b.	c #906C17",
"c.	c #876615",
"d.	c #745611",
"e.	c #655D4C",
"f.	c #D8B058",
"g.	c #E2BB67",
"h.	c #6C510E",
"i.	c #AF851E",
"j.	c #937018",
"k.	c #846314",
"l.	c #7F5F13",
"m.	c #785A11",
"n.	c #6F5310",
"o.	c #6B5A33",
"p.	c #E3BE6D",
"q.	c #D9AA3B",
"r.	c #DBAD41",
"s.	c #E7C886",
"t.	c #856414",
"u.	c #7C5E12",
"v.	c #6D510E",
"w.	c #5E4A1B",
"x.	c #A37C1B",
"y.	c #735511",
"z.	c #57400A",
"A.	c #D9AA3A",
"B.	c #8E6B17",
"C.	c #3B2B04",
"D.	c #3A2A05",
"E.	c #251A02",
"F.	c #533F0C",
"G.	c #E1BA64",
"H.	c #684D0E",
"I.	c #70540F",
"J.	c #483506",
"K.	c #322303",
"L.	c #4C3707",
"M.	c #644B0D",
"N.	c #6A4F0F",
"O.	c #C59623",
"P.	c #58410A",
"Q.	c #382905",
"R.	c #201602",
"S.	c #1E1402",
"T.	c #160E01",
"U.	c #E9CD91",
"V.	c #795B11",
"W.	c #4E3908",
"X.	c #5B430B",
"Y.	c #423106",
"Z.	c #413006",
"`.	c #977219",
" +	c #473407",
".+	c #3F2D05",
"++	c #342604",
"@+	c #332607",
"#+	c #D29F28",
"$+	c #3E2D05",
"%+	c #2D2003",
"&+	c #3B2D11",
"*+	c #9D7F39",
"=+	c #AE841E",
"-+	c #2C2617",
";+	c #453207",
">+	c #2B1F03",
",+	c #1E1C1A",
"'+	c #AB852A",
")+	c #9A751A",
"!+	c #2E2103",
"~+	c #0E0701",
"{+	c #211702",
"]+	c #332A13",
"^+	c #2C2C2C",
"/+	c #140C01",
"(+	c #1C1A18",
"_+	c #5A430B",
":+	c #181001",
"<+	c #1B1201",
"[+	c #231C10",
"}+	c #8B6B1D",
"|+	c #7B5D12",
"1+	c #1A1101",
"2+	c #322910",
"3+	c #292929",
"4+	c #806015",
"5+	c #5E450C",
"6+	c #241902",
"7+	c #362A0E",
"8+	c #282828",
"9+	c #705518",
"0+	c #261F0B",
"a+	c #2A2A2A",
"b+	c #241E13",
"c+	c #564319",
"d+	c #4A3607",
"e+	c #312303",
"f+	c #241C0C",
"g+	c #2D2B29",
"h+	c #443514",
"i+	c #43320B",
"j+	c #261B05",
"k+	c #2E230E",
"l+	c #312B1D",
"                                                                ",
"                          . + @ # $ % & * =                     ",
"                    - ; > , ' ) ! ~ ' { ] ^ / ( _               ",
"                  : , ! < [ } | 1 ' { { 2 3 4 5 6 7             ",
"              8 1 9 0 a [ | b c d e f ] g c f h i j k l         ",
"            m n o ! ' d p q r s t q u v w x y y q r z A B       ",
"          C { D < E F G e 9 H { 2 d I 4 G J K u r L z s M N     ",
"          9 o o [ ~ 4 ~ 9 O P ~ ~ Q { R p i S T y z U s V W     ",
"        X ~ o Y ) P ~ ) Q Z `  ...+.@.#.h h $.%.F &.u *.=.-.;.  ",
"      >.{ [ } a O ~ ,.'...).q 4 g c y !.!.U ~.F v {.].^./.(._.:.",
"      { P } P ~ Q P z <.h ] f z K [.}.T z [.F &.{.J |.1.).2.3.:.",
"      { ) P ~ ' ~ i 4.] t 5.6.7.8. .9.y F &.F 0.^.!.a.b.c.@.d.e.",
"    f.2 O 9 H n g.<.c 4 g S v r &.|.h.1.&.{.i.q 1.j.(.k.l.m.n.o.",
"    3 H Q p.| n L 1.f h q.j.r.s.' 2 v ..*.J |.%.{.t.K u.d.v.4.w.",
"    x./.1.` y.4 k.S p G q z.p.s.T S A.y.B.!.a.x.p v.C.7.7.D.E.F.",
"    2 G x !.q.G.H.c G ~.r 9.0.u.{.b.k.m.).).(.c.d <.I.7.J.K.L.L.",
"    x.h.M.8.N.2 N.i S T y T , G 2 p O.=.!.9.K u.d P.Q.R.S.T.S.D.",
"    I R t 5.p , H.S $.%.F U U., v v L *.=.@.V.` 2 W.X.z. .J.Y.C.",
"    g 4 g c G 4 9.6.O.0.v s 4 z l.l./.^.9.m.I.(.I Y... .J.Z.C.K.",
"    i A.q.i S A.%.J U s i.J =.y &.x.`.B.d.n.4.y #.J.L. +.+D.++@+",
"    #+$.q T F x 5 {.u *.x.).^.x ^.9.s j.7.7.` 2 7. .Y.$+Q.K.%+&+",
"    *+y Z }.!.0.Z w z 9.).#.].i.v *.=+7.).n.i.&.$+Z.H.z.E.%+E.-+",
"      Z O.=+9.J {.z F 0.{.u @.2.(.c.7.J.1.b.%.++;+D.9.S.E.E.>+,+",
"      '+{.u 2.u.!.|.)+U S =.9.I.B.9.D.7.v v !+J.Q.X.%+~+{+S.]+^+",
"        U [.|.k.K ).B.u.K s G O.U w %.6...Q.Y.++Z.C./+S.S.%+(+  ",
"          ^.|.u.n.t.l.u.d.N.P.Y.D.++%+$+J.D.D._+++:+S.<+S.[+    ",
"          }+).b.K m.a.|+h.7.X.z. .J.Y.$+;+Q. +S.T.S.1+1+2+3+    ",
"            4+2.@.4.P.u.I.X.5+..P.;+C.I.X.{+6+T.<+1+<+7+8+      ",
"              9+d.m.5+K.6+K.W.M.L.>+K.E.T.<+R.<+:+%+0+a+        ",
"                  X.V.<. .J.K.K.E.E.%+R.{+S.1+E.Z.b+            ",
"                    c+ .X.5+d+++e+%+E.R.%+$+++f+g+              ",
"                          h+i+Q.%+6+E.j+k+l+                    "};
