/* XPM */
static char * C:\Users\Daniels\Desktop\pixmaps_novo\bitcoin16_xpm[] = {
"16 16 117 2",
"  	c None",
". 	c #BEBEBC",
"+ 	c #D5C6A7",
"@ 	c #E4CE9E",
"# 	c #E5CB95",
"$ 	c #DFC182",
"% 	c #D2B476",
"& 	c #B8A783",
"* 	c #DCD0B7",
"= 	c #E8C989",
"- 	c #E5C37A",
"; 	c #E4BF70",
"> 	c #DEB455",
", 	c #DCB14B",
"' 	c #DCB14C",
") 	c #DCAF47",
"! 	c #D4A53A",
"~ 	c #E3D1AE",
"{ 	c #E8CA89",
"] 	c #DEB352",
"^ 	c #DCAF48",
"/ 	c #DCAF45",
"( 	c #D7A328",
"_ 	c #B1861F",
": 	c #D19E26",
"< 	c #C39422",
"[ 	c #DCCEB3",
"} 	c #E8C988",
"| 	c #E7C782",
"1 	c #E3BE6D",
"2 	c #D8A52F",
"3 	c #D9AA3B",
"4 	c #D9A834",
"5 	c #CB9924",
"6 	c #BD8F22",
"7 	c #A27B1B",
"8 	c #B9B9B9",
"9 	c #E5C684",
"0 	c #E6C47D",
"a 	c #E4BF71",
"b 	c #DDB14E",
"c 	c #D4A127",
"d 	c #9D7719",
"e 	c #B88B20",
"f 	c #A67D1D",
"g 	c #9C7619",
"h 	c #7F6428",
"i 	c #CEBFA0",
"j 	c #E5C277",
"k 	c #E3BE6E",
"l 	c #DAAC3F",
"m 	c #906C17",
"n 	c #7C5E12",
"o 	c #AF851E",
"p 	c #846314",
"q 	c #7B5D12",
"r 	c #D3B77E",
"s 	c #AB811D",
"t 	c #E6C47C",
"u 	c #B5881F",
"v 	c #856414",
"w 	c #987319",
"x 	c #A37C1B",
"y 	c #634A0D",
"z 	c #4A3607",
"A 	c #D2B166",
"B 	c #8E6B17",
"C 	c #D29F26",
"D 	c #BF9121",
"E 	c #977219",
"F 	c #745611",
"G 	c #C79623",
"H 	c #3A2A05",
"I 	c #312303",
"J 	c #CFAE60",
"K 	c #D8A730",
"L 	c #D7A42B",
"M 	c #70540F",
"N 	c #CC9A24",
"O 	c #483506",
"P 	c #473407",
"Q 	c #BA9D5D",
"R 	c #D6A227",
"S 	c #C29323",
"T 	c #A87F1C",
"U 	c #A0791A",
"V 	c #5B430B",
"W 	c #382905",
"X 	c #9C8E72",
"Y 	c #BB8D21",
"Z 	c #896615",
"` 	c #6D510E",
" .	c #5E450C",
"..	c #241902",
"+.	c #57400A",
"@.	c #A17F30",
"#.	c #916D17",
"$.	c #785A11",
"%.	c #6C510E",
"&.	c #CF9D25",
"*.	c #60470C",
"=.	c #1A1101",
"-.	c #2E2103",
";.	c #876615",
">.	c #6A4F0F",
",.	c #6F5310",
"'.	c #765912",
").	c #453207",
"!.	c #291C02",
"~.	c #543F09",
"{.	c #352704",
"].	c #322303",
"^.	c #5C471A",
"/.	c #4F3B08",
"(.	c #2D2003",
"_.	c #251A02",
":.	c #4E3908",
"                                ",
"          . + @ # $ % &         ",
"        * = - ; > , ' ) !       ",
"      ~ { ] ^ ' ) / ( _ : <     ",
"    [ } | 1 > ) 2 2 3 4 5 6 7   ",
"  8 9 0 a b c : d e e 5 5 f g h ",
"  i j k b : l 2 m n e o < g p q ",
"  r : 6 4 5 2 s t u v w x w y z ",
"  A g B ( C 5 D l u E p F G H I ",
"  J l K L D u ( K f x M y N O P ",
"  Q R S ( T U g e f q V p w W O ",
"  X 6 u Y G Z x x Z `  .:  ...+.",
"    @.#.$.s S B %.V $.&.*.=.-.  ",
"      ;.>.,.'.;.< G ;.)...!.    ",
"        >.~.W {.].-...=...      ",
"          ^./.(._._.].:.        "};
