/* XPM */
static char * C:\Users\Daniels\Desktop\pixmaps_novo\bitcoin64_xpm[] = {
"64 64 289 2",
"  	c None",
". 	c #E1D3B6",
"+ 	c #DBC595",
"@ 	c #E6CE9D",
"# 	c #E2C37F",
"$ 	c #E7C989",
"% 	c #E5C37A",
"& 	c #E7C885",
"* 	c #E5C277",
"= 	c #E5C37B",
"- 	c #E5C47F",
"; 	c #DFC181",
"> 	c #DABF87",
", 	c #CCB689",
"' 	c #DCC698",
") 	c #E6CA8D",
"! 	c #E7C782",
"~ 	c #D29F26",
"{ 	c #AE841E",
"] 	c #AB811D",
"^ 	c #B78A20",
"/ 	c #B5881F",
"( 	c #BD8F22",
"_ 	c #BA8D21",
": 	c #B1861F",
"< 	c #AC821D",
"[ 	c #A9801C",
"} 	c #A37C1B",
"| 	c #C59623",
"1 	c #E3BD6A",
"2 	c #E0B962",
"3 	c #E3C073",
"4 	c #D0AF67",
"5 	c #D7CCB4",
"6 	c #E7D09C",
"7 	c #E6C47C",
"8 	c #DDB14E",
"9 	c #DCAF45",
"0 	c #E6C67F",
"a 	c #E9CB8B",
"b 	c #E8CA89",
"c 	c #E8C988",
"d 	c #E5C379",
"e 	c #E2BC68",
"f 	c #DAA937",
"g 	c #D4A127",
"h 	c #DAB155",
"i 	c #C8B17E",
"j 	c #D0C2A9",
"k 	c #EAD09A",
"l 	c #C09121",
"m 	c #C29323",
"n 	c #E4BF70",
"o 	c #E9CD90",
"p 	c #EACC8E",
"q 	c #E9CB8C",
"r 	c #E4BF71",
"s 	c #E3BE6D",
"t 	c #E1BA65",
"u 	c #DCAF47",
"v 	c #B88B20",
"w 	c #DCB14B",
"x 	c #DEB456",
"y 	c #B59960",
"z 	c #E4C98F",
"A 	c #D7A42C",
"B 	c #E9CD91",
"C 	c #DCB14C",
"D 	c #DEB455",
"E 	c #E1B85E",
"F 	c #E1BA64",
"G 	c #E0B65B",
"H 	c #AF851E",
"I 	c #DBAF4D",
"J 	c #D7C8A9",
"K 	c #CF9D25",
"L 	c #EACE93",
"M 	c #DBAD41",
"N 	c #E3BE6E",
"O 	c #BF9121",
"P 	c #C39422",
"Q 	c #E2BB67",
"R 	c #DCAF48",
"S 	c #DFB557",
"T 	c #DEB354",
"U 	c #C79623",
"V 	c #D9AA3B",
"W 	c #B7964F",
"X 	c #E5D1A4",
"Y 	c #B3881F",
"Z 	c #E4C174",
"` 	c #E6C680",
" .	c #E7C886",
"..	c #E0B75C",
"+.	c #E1B861",
"@.	c #DBAD42",
"#.	c #D8A730",
"$.	c #D2A337",
"%.	c #EAD2A1",
"&.	c #E4C173",
"*.	c #DEB352",
"=.	c #806013",
"-.	c #D9A834",
";.	c #8E6B17",
">.	c #DFB559",
",.	c #916D17",
"'.	c #DAAC3F",
").	c #CB9924",
"!.	c #DAAC3D",
"~.	c #D9AA3A",
"{.	c #D9A833",
"].	c #C99824",
"^.	c #E6CA8F",
"/.	c #A0791A",
"(.	c #906C17",
"_.	c #D7A42B",
":.	c #A67D1D",
"<.	c #957018",
"[.	c #D8A52F",
"}.	c #E5C78A",
"|.	c #EACF94",
"1.	c #987319",
"2.	c #A87F1C",
"3.	c #D6A227",
"4.	c #533E09",
"5.	c #D7A328",
"6.	c #D19E26",
"7.	c #CE9C25",
"8.	c #E9D6B1",
"9.	c #CC9A24",
"0.	c #8A6B21",
"a.	c #DFD1B4",
"b.	c #8B6816",
"c.	c #DDB14F",
"d.	c #715B28",
"e.	c #E6C47D",
"f.	c #9D7719",
"g.	c #BB8D21",
"h.	c #E8D2A5",
"i.	c #7F5F13",
"j.	c #4C3707",
"k.	c #3F2D05",
"l.	c #5A430B",
"m.	c #684D0E",
"n.	c #634A0D",
"o.	c #543F09",
"p.	c #6D510E",
"q.	c #745612",
"r.	c #D4C9B2",
"s.	c #4A3607",
"t.	c #5B430B",
"u.	c #7C5E12",
"v.	c #A27B1B",
"w.	c #64532C",
"x.	c #E7D09E",
"y.	c #4F3B08",
"z.	c #644B0D",
"A.	c #9F781B",
"B.	c #9C7619",
"C.	c #DDD2BC",
"D.	c #977219",
"E.	c #453207",
"F.	c #7B5D12",
"G.	c #574723",
"H.	c #E4CB99",
"I.	c #3A2A05",
"J.	c #60470C",
"K.	c #423106",
"L.	c #937018",
"M.	c #61470C",
"N.	c #846314",
"O.	c #785A11",
"P.	c #4E3908",
"Q.	c #765912",
"R.	c #8C6916",
"S.	c #896615",
"T.	c #D9C8A3",
"U.	c #70540F",
"V.	c #856414",
"W.	c #876615",
"X.	c #564319",
"Y.	c #E6CE9A",
"Z.	c #745611",
"`.	c #826214",
" +	c #6F5310",
".+	c #2D2003",
"++	c #9A751A",
"@+	c #D7CCB5",
"#+	c #795B11",
"$+	c #47391A",
"%+	c #D9C7A1",
"&+	c #6C510E",
"*+	c #160E01",
"=+	c #EDD5A3",
"-+	c #5E450C",
";+	c #483610",
">+	c #E0C999",
",+	c #181001",
"'+	c #EED7A8",
")+	c #513C09",
"!+	c #342604",
"~+	c #322303",
"{+	c #312303",
"]+	c #2E2103",
"^+	c #2B1F03",
"/+	c #291C02",
"(+	c #423107",
"_+	c #DFC488",
":+	c #0E0701",
"<+	c #ECD29A",
"[+	c #382905",
"}+	c #E3C585",
"|+	c #483506",
"1+	c #58410A",
"2+	c #352704",
"3+	c #E2C17B",
"4+	c #664D0E",
"5+	c #735511",
"6+	c #3B2B04",
"7+	c #6A4F0F",
"8+	c #E3C078",
"9+	c #473407",
"0+	c #251A02",
"a+	c #E1BF75",
"b+	c #271B03",
"c+	c #241902",
"d+	c #211702",
"e+	c #201602",
"f+	c #1E1402",
"g+	c #E4C37E",
"h+	c #57400A",
"i+	c #DFBE77",
"j+	c #DBBC79",
"k+	c #413006",
"l+	c #D6BB80",
"m+	c #3E2D05",
"n+	c #2D2004",
"o+	c #CCB484",
"p+	c #2E2308",
"q+	c #BFAF8D",
"r+	c #2E230E",
"s+	c #D8B569",
"t+	c #BFA369",
"u+	c #2F2309",
"v+	c #1B1201",
"w+	c #19140A",
"x+	c #CAA44D",
"y+	c #AF9B75",
"z+	c #140C01",
"A+	c #29200B",
"B+	c #CEA447",
"C+	c #0A0600",
"D+	c #1A1101",
"E+	c #978767",
"F+	c #2E230D",
"G+	c #BF9945",
"H+	c #090500",
"I+	c #262012",
"J+	c #947F54",
"K+	c #130B01",
"L+	c #9C7F3E",
"M+	c #8C6D27",
"N+	c #88681C",
"O+	c #1B170D",
"P+	c #7E6018",
"Q+	c #161108",
"R+	c #6F551B",
"S+	c #5F4B1D",
"T+	c #0C0701",
"U+	c #100A01",
"V+	c #5B4D2E",
"W+	c #2A2008",
"X+	c #4C3B11",
"Y+	c #2F2819",
"Z+	c #53472F",
"`+	c #453208",
" @	c #433B26",
".@	c #40300A",
"+@	c #231B0B",
"@@	c #413518",
"#@	c #312305",
"$@	c #2F230A",
"%@	c #18140C",
"&@	c #322A15",
"*@	c #372B10",
"=@	c #271C05",
"-@	c #1F1602",
";@	c #221A06",
">@	c #29210F",
"                                                                                                                                ",
"                                                                                                                                ",
"                                                  . + @ # $ % & * & = - ; > ,                                                   ",
"                                            ' ) ! ! ~ { ] ^ / ( _ : < [ } | 1 2 3 4                                             ",
"                                      5 6 7 8 : ( 9 0 a b c & ! 0 7 7 d * e f ^ } g e h i                                       ",
"                                  j k 7 l m n o p q b b c & ! 0 7 % * * r n s e t u v : w x y                                   ",
"                                z a ( A b B o q q b c d ! n C D d * 2 D E 1 e F 2 E G D l H f I                                 ",
"                            J o A K a L o o q a b n 0 G n D M N * E f O P Q u R M G S T 8 u ( U V W                             ",
"                          X & Y Z L B o p q n `  .e ..w C N u ^ +.8 @.e t f ~ D P D #.8 w u @.A : K $.                          ",
"                        %.G P o L B o 0 0 b &.G 7 *.: =.H -.H ;.N >.H ,.~ f '.>.'.~ ).w #.M !.~.{.v ].P                         ",
"                      ^.f '.B L o b e >.*.&.T /.(.K _.d D &.n s 1 Q 2 2 ..8 : :._.<.~.~.'.-.K -.[._.( m v                       ",
"                    }.f 8 |.B o p & T * D ).;.s >.% * Z r n s e t F +.G >.D *.8 [.} ~.#.).1.2.[._.3.~ ( v ^                     ",
"                  6 '.R L B o q q b F A ).-.N 7 d * Z n N 1 e F 2 E G >.D *.8 w u M P Y ,.4.A 5.g 6.7.).( < :.                  ",
"                8.>.!.L o o q a b c & P -.7 7 d * &.Z * % 7 7 % * * n e ..*.R 9 '.!.f -.v { 3.~ 6.9.].| m v ] 0.                ",
"              a.7 ).o o p q b b c & ! 0 7 % * * 7 ! d [.w ;.).b.1.] 1.@.9.+.2 c.!.f {.[.5.3.~ K ).U P l ( v : 2.d.              ",
"              o v b o q q b c & ! ` e.7 d * e. .*.: 9.} g ).7.( ~ g {.~ f.( 1.'.S 9 A 5.g 6.7.).| P O g.v / : 2.(.              ",
"            h.f n o q a b c & ! 0 7 7 d d  .S 2.m ).:.i.j.k.l.m.m.n.o.p.2.7.9.].1.{.R 5.6.9.).| m ( _ ^ Y : ] 2.:.q.            ",
"          r.` 6.q q b b c & ! 0 7 % * 7 ` A 9.| <.s.t.2.#.D *.8 w u M K :.u.,.P : m ( !.g U P l ( v / Y H ] :.v.] b.w.          ",
"          x.U ! q b c  .! ` e.7 d * 7 ! 5.} { y.z.5.G >.D *.8 w u M '.~.f #.l ;.] 7.] 5.f 9.O g.v / : < [ } v.A.B.:.m.          ",
"        C.% {.a b c & ! 0 7 7 d * % ! ,.O D.E.( ..G S T c.u ).f.< 5.f -.[._.5.~ : :.| ( /.A O ^ Y : ] 2.} v.f.1.<./.F.G.        ",
"        H.g ! b  .& ! 0 7 % d * Z e.@.( } j.'.G >.D *.8 < I.I.J.K.y.u.9.5.3.~ K ).l : / v K | ^ H ] :.} A.f.1.L.,.;.] M.        ",
"        ! ].c  .! ` e.7 d * Z n 0 ].} b.y.w G >.D c.8 ,.p.;.N.n.O.P.u.Q.{ 6.7.).| P ( ( O ^ 6.{ [ } v.A.B.D.,.(.R.S.f.t.        ",
"      T.>.F & ! 0 7 7 d Z &.n Z D U / s.!.G S T c.C U m U v.} Q.U.L.V.,.,.K ].| m ( _ _ U ( 7.P A.v.f.1.<.,.(.b.W.N.S.,.X.      ",
"      Y.l ! ! 0 7 % * * r n N 7 : P o.g.>.D *.8 w !.v.% P { <.[ Z.U.F.t.u.~ O l ( v / Y P 3.;.9.v.f.1.L.,.;.b.V.`.=.u.} s.      ",
"      % ).` e.7 d * Z n N 1 n >.7.<. +>.D c.8 w u ] ,.m [.2 T E S 6.].f..+R._ g.v Y : < [ [.U 9.( (.L.,.R.S.N.`.i.F.O.++y.      ",
"    @+Z '.7 7 d * &.n s 1 Q &.] v o.5.T c.C R 9 '.n.;.2 Z *.C 9 w f 6.~.u.s.W./ Y : ] 2.} v {.D._.S.(.b.W.N.=.u.#+Q.U.=.n.$+    ",
"    %+5.r % * * r n s e t t N U ] &+*.8 w u @.'.~.*+} =+a ! D '.c.V f [./ -+j.} H ] :.} /.f.f 7.5.D.W.V.`.i.u.O.Z.U.p. +S.;+    ",
"    >+2.b.u.u.F.#+O.O.Q.Q.( [.[ N.] 8 w u M !.~.K ,+=.o '+! % % 2 2 Q 9 ].U.)+f.[ } v.A.B.D.P ]./.{ n.I.!+~+{+]+.+.+^+/+O.(+    ",
"    _+_ * E +.u Q E 5.8 ..e c.~ n._.R 9 '.!.f -.).:+V.<+R @.g.V.D.} H f.7.N.z.A.} v.f.1.<.,.2.8 g.| Z.u.#+_ } u.u.2.j.J.B.[+    ",
"    }+O r R @.v -.9 O G >.e ,./ t.u @.'.V f {.[.g .+*.E ~+p.p.| N.s.N.!+b.1.E.L./.f.1.L.,.;.R.S (.).&+O.Z.S.-+|+1+Q.s.t.D.2+    ",
"    3+g.N C f f.'.@.] _ D e ( 9. +M '.~.f #.A 5.~ |+5.~.O.b.<.! D H =.`.: D.~+< B.D.L.,.R.S.N.8 l {.4+5+U.A.o.6+t.7+{+P.;.~+    ",
"    8+O 1 6.N.} c.( N.6.c.t L.( u.!.f -.[.A 5.~ K P 1 * & u u 7 c.e [.| [.v <.g.<.,.(.b.W.N.=.u :.l J. +&+9+0+|+y.6+/+y.W.]+    ",
"    a+b.i.Q.Z.5+U.U. +p.7++.[ g =.f {.[.5.3.~ K ).[.+.! 7 q *.2 5.7.f '.l < < ,.,.;.b.V.`.i.u.w v 5.t.!+/+b+0+0+c+d+e+f+J.c+    ",
"    g+v 2 E G >.D c.8 w u ..v 7.u.#.A 5.g 6.7.).U : E E * M ,.m `.Y ( ].} :.{ A.R.S.N.`.i.F.O.S : | h+z.M.-+l.1+o.y.y.s.N..+    ",
"    i+: ..G S T 8 C R 9 '.S <.~ O.5.3.~ 6.9.].P m /.N >.@.] f ( N.] 6.1.D.} g.1.W.N.=.u.#+Q.Q.1 ] 9.o.J.t.l.h+4.y.P.|+|+V.^+    ",
"    j+[ >.D *.8 w u @.'.V 8 [.6.R.P ~ K ).U P l ( v O c.5.| 1.n.7+y.N.N.1.] 1.V.`.=.u.O.Z.U.<.e ( v.4.t.l.o.)+y.j.|+E.k+W..+    ",
"    l+< D c.8 w u M '.~.f @.).[ g.] 7.).| P O g.v / : -.#.2.: } ;.,.( [ ,.A.N.`.i.F.O.5+U.&+m !./.b.)+1+o.y.y.s.|+E.k+m+S.n+    ",
"    o+_ u C R 9 '.!.f -.[.#.w P 5.1.].P m ( _ ^ Y : ] ] : '.G -.} H g 9 U.N.=.u.#+Q.U. +7+m.>.3.).t.o.4.y.P.|+|+K.k+m+E.&+p+    ",
"    q+9 ~ u @.'.V f {.[.5.3.u 1.Y Y v l ( v / Y H ] :.,.1.} P 9.2.2./.)+u./.u.O.Z.U. +7+4+1.* ,.^ E.)+y.j.|+9+k+k.6+I.J.~+r+    ",
"      u Y M '.~.f #.A 5.g 6.#.g O ~ [ g.v / : < [ 1.(.f.( g.< &+]+y.5+H V 5+p.7+U.&+7+z.n.T '.).O.E.y.s.|+E.k+m+6+[+2+F.e+      ",
"      s+A.V f -.[.5.g K 6.9.).V /._ 7.: Y : ] f.b.] [.} m #.U < : 6.#.{.H {+} ;.7+l.n.J.Y Z W.: K.P.|+|+K.k+m+I.[+!+~+=.d+      ",
"      t+O g {.[.~ / m f.).U P 6.7.U 6.).] ,.U.L.m m O N.S.Y ] G M ].i.U U.f+v.,.<.W.t.J.* l U Z.k.|+9+k+|+m.k+E.[+{+P.P.u+      ",
"        @.] A 5.).: 7._ ( P O g.5.^ D.6.7.R.: v { ] H B.)+v ] W.4.y.R.m d+m+A.b.i.`.V.V R 2.} !+|+E.k+E.7+)+E.c+0+.+F.v+w+      ",
"        x+} ~ ~ P ( U [.#+( _ ^ v ).l m P 5.v.f.v.:.v.: l.`.Y u.#+H < L.:+7+L.N.=.Z.A P ( } I.K.K.k+m+u.p./+.+f+.+~+#+d+        ",
"        y+9.{ K ).] f.( ,.L.^ Y H : O : ( g f :.L.D.B.[  +#+Y 7+h+=.(.n.z+R.W.=.O.S {.v U k+6+k+k.6+K.u.0+/+,+/+/+5+f+A+        ",
"          B+v.| U v v &+u.U.f.< [ } [ / ).f.^ '.6.<.,./. +5+Q.u.++,.7+C+2+,.u.O * 7.} { k+[+k+m+6+[+2+^+c+f+D+/+.+u.f+          ",
"          E+( [ m ( } F.Y b./.2.} v.f.++/.O 7.B.g *.5.:.F.~+&+++,.7+l.)+m.~ r V N.].B.I.[+k+m+I.[+)+t.!+2+:+0+0+u.D+F+          ",
"            G+} ^ v / ] ++/.,.< /.f.1.L.L.N.] 3.6.`.).g +.u [.).| ].8 e M V =.).O U./+m+k.6+I.2+!+o.: l.D+f+0+k+n.f+            ",
"              v f.: : < u.(.,.} u.D.,.,.R.S.F.O.v.K 5.{ O S.] } v _ ;.Y [ 6.^ F.~+~+k+m+6+[+!+1.] y.I.H+D+c+0+b.z+I+            ",
"              J+/./.] 2.} `.W. +j.b.f.b.W.N.=.u.&+n.Z.} / ].-.3.f 9.K A.;.|+.+!+k+k+m+I.[+!+R.A.c+v+*+K+c+d+N.*+u+              ",
"                L+B.++} /.R.`.y.z.O.7+Z.`.i.u.O.Z.U.7+t.4.|+k+m+I.[+2+[+6+k+9+k+k.6+I.2+J.).z.[+K+*+:+d+e+m.I.d+                ",
"                  M+f.D.B.D.,.,.b.n.Q.-+&+O.O.5+U.p.7+z.M.-+t.1+o.y.y.j.|+E.k+m+6+[+!+[+} !+f+v+C+,+d+f+t.-+v+                  ",
"                    N+1.L.,.(.b.p.M.5+h+m.u.u.Q.&+m.n.J.t.l.h+4.y.P.|+|+K.k+m+I.[+|+.+]+!+v+D+C+f+e+f+t.p.D+O+                  ",
"                      P+S.1.S.V.`.i.5+i.Z.2.1.1.t.M.J.t.l.o.)+y.P.|+E.k+k.K.o.h+g.t.^+.+/+K+H+v+e+f+ +M.v+Q+                    ",
"                        R+u.1.N.i.F.O.4.y.=.|+k+!+l.=.7+O.J.7+Z.o.|+6+m+6+m.~+o.l.D+z+/+0+f+d+f+c+,.2+D+                        ",
"                          S+Q.L.`.Q.U. +&+j.I.k.|+M./.t.p.f.u.A.W..+I.I.[+o.~+^+v+T+b+0+c+e+f+k+f.U+f+                          ",
"                            V+t.N.<.U.7+4+n.y.{+k..+[+~+!+~+b+~+^+e+I.2+!+b+f+f+e+*+0+d+e+b+b.n.:+W+                            ",
"                                X+t.,.b.n.-+l.1+o.|+y.0+c+I.^+c+*+v+c+~+{+.+d+c+0+c+d+b+#+;.K+v+Y+                              ",
"                                  Z+`+4.A.,.7+4.y.P.|+|+K.k+m+[+]+{+.+]+.+^+b+0+c+|+V.b.K+*+F+                                  ",
"                                       @.@[+Q.B.,.&+y.k+k.6+I.2+~+{+.+.+/+!+J.N.,.y.U+d++@                                      ",
"                                            @@#@!+k.`.v.f.1.,.b.N.b.,.1.B. +e+:+D+$@%@                                          ",
"                                                  &@*@=@0+f+,+*+K+*+*+,+-@;@>@                                                  ",
"                                                                                                                                ",
"                                                                                                                                "};
